<svg xmlns="http://www.w3.org/2000/svg" xmlns:xlink="http://www.w3.org/1999/xlink"  viewBox="0 0 130 130"><defs><path id="a" d="M0 0h130v130H0z"/></defs><clipPath id="b"><use xlink:href="#a" overflow="visible"/></clipPath><path clip-path="url(#b)" fill="#0091D1" d="M65 90c8.16 0 15.42-3.932 19.986-10H75h9.986C88.132 75.82 90 70.624 90 65c0-13.785-11.215-25-25-25v10-10c-13.785 0-25 11.215-25 25 0 5.624 1.868 10.82 5.014 15H55h-9.986C49.58 86.068 56.84 90 65 90"/><path clip-path="url(#b)" fill="#E03131" d="M35 65c0-16.542 13.458-30 30-30h57.658C111.816 14.206 90.074 0 65 0 42.304 0 22.336 11.64 10.71 29.268l25.51 44.187C35.43 70.77 35 67.935 35 65"/><path clip-path="url(#b)" fill="#4BB64B" d="M65 95c-13.606 0-25.12-9.108-28.78-21.545L10.71 29.268C3.947 39.522 0 51.798 0 65c0 34.622 27.072 62.913 61.2 64.88l25.55-44.25C81.28 91.396 73.554 95 65 95"/><path clip-path="url(#b)" fill="#FCD11C" d="M122.658 35H65c16.542 0 30 13.458 30 30 0 7.987-3.144 15.25-8.25 20.63L61.2 129.88c1.26.073 2.524.12 3.8.12 35.898 0 65-29.102 65-65 0-10.825-2.66-21.023-7.342-30"/></svg>