<svg xmlns="http://www.w3.org/2000/svg" xmlns:xlink="http://www.w3.org/1999/xlink" viewBox="0 0 132 130"><defs><path id="a" d="M0 0h132v130H0z"/></defs><clipPath id="b"><use xlink:href="#a" overflow="visible"/></clipPath><path clip-path="url(#b)" fill="#41A2F2" d="M111.157 19.243C99.38 7.363 83.052 0 65 0 35.712 0 10.957 19.372 2.83 46H6l-1 4-3.57 1.428C.5 55.806 0 60.344 0 65c0 9.34 1.985 18.21 5.532 26.238L9 90l17 18 43 14 40-20 9-17 5-26-11.843-39.757z"/><path clip-path="url(#b)" fill="#F28268" d="M121.778 96.584c.304-.574.6-1.15.885-1.73-.286.58-.58 1.156-.885 1.73M120.268 99.307c.417-.71.814-1.427 1.203-2.146-.388.72-.785 1.437-1.202 2.147M122.908 94.362c.354-.73.696-1.46 1.023-2.192-.326.733-.667 1.464-1.022 2.192M88.003 125.896c-.99.347-2.005.672-3.038.983 17.34-5.186 28.35-15.736 35.303-27.574-7.486 12.066-18.807 21.496-32.265 26.59M124.08 91.83c.276-.626.542-1.254.8-1.883-.257.63-.524 1.257-.8 1.884M84.51 127.018c-1.07.313-2.16.61-3.28.883 1.12-.27 2.208-.57 3.28-.882M1.674 50.47c.71-1.722 1.25-2.666 1.25-2.666s-.54.944-1.25 2.666M0 65.1c0-5.032.59-9.923 1.673-14.626C-.095 57.606-2.447 76.304 11 97.1c13.72 21.214 32.998 28.888 55.243 32.895.705.127-.53-1.913-1.243-1.896-35.482-.485-65-27.405-65-63M18.5 23.82c.154.153.3.3.426.43-.127-.13-.27-.276-.425-.43M126.912 84.45c.198-.6.388-1.195.57-1.792-.182.597-.372 1.194-.57 1.79M125.98 87.133c.27-.74.53-1.48.78-2.22-.25.74-.51 1.48-.78 2.22M131.803 45.665l-1.58 10.154s-2.265-18.8-5.037-25.828c-4.25-10.768-6.142-10.682-6.153-10.666 2.847 7.234 2.33 11.12 2.33 11.12s-5.044-13.746-18.38-18.12c-14.81-4.853-22.806-3.51-23.695-3.265.89-.244 8.854-1.578 23.596 3.236C119.298 24.094 130 43.34 130 65.1c0 5.105-.607 10.066-1.72 14.833 4.973-18.16 3.523-34.268 3.523-34.268M127.652 82.104c.218-.727.43-1.45.626-2.17-.196.72-.408 1.444-.626 2.17M125.122 89.353c.25-.625.493-1.25.726-1.875-.233.625-.475 1.25-.726 1.875M66.243 129.994c.717-.038 1.436-.087 2.155-.147-.72.06-1.438.108-2.155.147M79.287 9.06c-.06.017-.087.03-.083.033-.004-.004.025-.016.083-.032"/><path clip-path="url(#b)" fill="#F28268" d="M128.28 79.933zM1.672 50.473l.003-.004-.003.003M120.268 99.307M124.88 89.947c.082-.198.163-.396.242-.595l-.24.595M16.54 21.795c.737.804 1.426 1.487 1.962 2.024-.54-.54-1.223-1.22-1.963-2.025M122.663 94.854c.08-.164.165-.328.245-.492-.08.164-.164.328-.245.492M125.848 87.478c.043-.114.088-.23.13-.345-.042.115-.087.23-.13.345M123.932 92.17c.05-.112.097-.226.146-.338-.05.112-.097.226-.146.34M127.483 82.658l.17-.554c-.055.184-.113.37-.17.554M84.965 126.88c-.15.046-.303.093-.456.137.152-.045.303-.09.455-.137M126.76 84.914c.052-.155.102-.31.152-.465-.05.154-.1.31-.153.464M121.47 97.16c.105-.19.206-.384.31-.577-.104.193-.205.387-.31.578M102.884 12.197c-15.727-5.135-23.74-3.275-23.68-3.202.06.073 16.322 2.843 19.206 6.805 0 0-6.907 0-13.782 1.98-.31.09 25.294 3.2 30.527 28.785 0 0-2.806-5.856-6.277-6.85 2.282 6.944 1.697 20.122-.477 26.67-.28.843-.565-3.64-4.848-5.57 1.372 9.828-.082 25.417-6.9 29.712-.532.334 4.273-15.39.966-9.312-19.75 30.28-43.23 12.25-52.752 5.825 7.643 1.873 15.763.524 20.464-2.69 4.744-3.24 7.55-5.61 10.07-5.052 2.52.562 4.196-1.965 2.24-4.21-1.96-2.246-6.715-5.334-13.15-3.65-4.538 1.19-10.16 6.21-18.743 1.126-7.323-4.34-7.273-7.862-7.273-10.107 0-2.246 1.997-5.66 5.633-5.1 3.255.504 1.54-1.408 5.044 0 .955.385-.095-4.58-1.453-7.762 2.615-5.46 11.102-7.08 11.735-7.56 1.147-.867.516-1.3.908-2.607.366-1.218.6-4.508-8.896-3.6-4.37.42-7.15-5.243-8.06-6.62.295-1.75.77-3.348 1.41-4.813.652-1.335 1.362-2.558 2.073-3.484.22-.288.415-.543.59-.778 1.417-1.652 3.154-3.063 5.24-4.237 1.09-.615-12.173-.038-18.14 7.74-1.6.207-3.798-.253-6.253-.253-3.078 0-5.496.336-7.734.898-.36.09-.937.04-1.644-.128-.567-.588-1.436-1.42-2.388-2.456-6.785 7.59-11.82 16.774-14.455 26.93.44-.48.3.024-.41 1.75C.59 55.077 0 59.968 0 65c0 35.597 28.618 64.494 64.1 64.977 1.428-.032 2.86-.106 4.297-.23 4.26-.276 8.552-.91 12.833-1.946 2.37-.57 4.618-1.247 6.77-2.002 13.46-5.095 24.78-14.523 32.267-26.59 3.7-6.302 6.256-12.965 8.012-19.373C129.392 75.068 130 70.105 130 65c0-21.758-10.7-41.005-27.116-52.803"/><path clip-path="url(#b)" fill="#F9AD95" d="M73.15 79.488c.798-.265 1.537-.348 2.25-.19 2.52.563 4.196-1.964 2.24-4.208-.808-.925-2.094-1.987-3.77-2.806l-.72 7.204z"/><path clip-path="url(#b)" fill="#EFBBAB" d="M47.84 49.342c2.757-5.25 10.97-6.836 11.593-7.307 1.147-.868.516-1.3.908-2.607.127-.42.238-1.09-.064-1.747L43 42c2.875 2 4.155 4.566 4.84 7.342"/><path clip-path="url(#b)" fill="#3D3D3D" d="M56.445 35.778l3.374 5.905c.59-.658.185-1.138.52-2.255.285-.947.488-3.144-3.895-3.65"/><path clip-path="url(#b)" fill="#F28268" d="M12.352 11.69s-8.103 6.227-6.89 23.205C4.51 44.28.41 50.995 2.153 51l1.993-2.16-.84.922c2.636-10.157 7.67-19.342 14.456-26.93-2.354-2.56-5.23-6.406-5.41-11.143"/></svg>