<svg xmlns="http://www.w3.org/2000/svg" xmlns:xlink="http://www.w3.org/1999/xlink" viewBox="0 0 130 130"><defs><path id="a" d="M0 0h130v130H0z"/></defs><clipPath id="b"><use xlink:href="#a" overflow="visible"/></clipPath><path clip-path="url(#b)" fill="#41A2F2" d="M130 65c0 35.9-29.1 65-65 65S0 100.9 0 65 29.1 0 65 0s65 29.1 65 65"/><path clip-path="url(#b)" fill="#fff" d="M100.46 70.88H48.72c.555 11.354 6.426 17.03 17.616 17.03 3.79 0 7.213-.953 10.265-2.86 2.866-1.646 4.624-3.595 5.272-5.85H99.21c-5.27 15.08-16.46 22.62-33.567 22.62-11.19 0-20.092-3.27-26.702-9.815-6.612-6.543-9.917-15.058-9.917-25.545 0-10.225 3.398-18.698 10.195-25.415C46.015 34.33 54.824 30.97 65.643 30.97c11.65 0 20.668 4.075 27.05 12.22 5.914 7.454 8.505 16.684 7.766 27.69m-51.74-11.7h32.042c-1.85-9.533-7.074-14.3-15.674-14.3-5.55 0-9.804 1.735-12.762 5.2-2.22 2.6-3.422 5.635-3.606 9.1"/><path clip-path="url(#b)" fill="#FFC41D" d="M99.947 31.9c-.135-.51-.284-1.018-.524-1.51-.105-.25-.216-.498-.367-.728l-.216-.352-.108-.175-.056-.088c-.057-.075.05.043-.142-.19l-.397-.5c-.076-.09-.11-.155-.222-.264l-.33-.32c-.222-.203-.463-.443-.683-.603l-.667-.475c-.91-.586-1.886-1.033-2.86-1.325-1.958-.606-3.91-.783-5.792-.777-3.77.07-7.32.833-10.692 1.873-3.378 1.032-6.59 2.353-9.68 3.792-3.094 1.433-6.043 3.038-8.88 4.714-5.673 3.343-10.797 7.165-15.3 11.11-4.54 3.99-8.535 8.058-11.733 12.266-3.204 4.193-5.717 8.36-7.6 12.21-1.865 3.86-3.158 7.38-3.787 10.39-.627 3.01-.49 5.523.092 7.105.135.398.267.744.43 1.024.143.287.268.526.404.698l.38.54.016.017.42.465c.123.157.33.337.587.548.244.23.553.434.91.652 1.41.918 3.82 1.61 6.886 1.677 3.068.066 6.782-.388 10.96-1.33 4.172-.958 8.79-2.474 13.563-4.693.148-.07.298-.146.447-.218l-5.23-3.36c-1.36.857-2.696 1.683-4.015 2.42-1.967 1.152-3.88 2.17-5.73 3.012-3.685 1.714-7.13 2.743-10.03 2.986-2.895.243-5.192-.306-6.478-1.117-.328-.196-.61-.376-.812-.565-.218-.172-.403-.32-.54-.486-.246-.27-.38-.414-.41-.446-.01-.013-.117-.176-.324-.488-.12-.154-.225-.374-.347-.635-.14-.252-.248-.57-.36-.93-.485-1.44-.482-3.79.42-6.544.906-2.76 2.693-5.874 5.208-9.063 2.502-3.204 5.72-6.494 9.343-9.903 3.63-3.398 7.628-7.032 12.044-10.586 4.456-3.59 9.26-7.17 14.433-10.58C67.362 37.79 72.95 34.6 78.9 32.32c1.48-.568 2.984-1.093 4.495-1.508 1.505-.44 3.026-.792 4.528-.986 1.497-.214 2.986-.27 4.336-.054.68.097 1.3.29 1.87.542l.412.207c.14.07.203.134.316.194l.16.088c.055.027.147.134.22.197l.44.42.008.008.07.088.146.175c.11.11.186.244.265.378.182.254.31.55.44.85.236.617.41 1.3.462 2.036.11 1.466-.092 3.05-.478 4.605-.838 3.106-2.275 6.132-4.024 8.916-.96 1.56-2.016 3.045-3.134 4.473L90 53l.904 1.657c1.19-1.642 2.354-3.318 3.46-5.056 1.806-2.89 3.548-5.9 4.727-9.282.603-1.684 1.067-3.478 1.134-5.42.05-.967-.036-1.98-.277-2.998"/><path clip-path="url(#b)" fill="#fff" d="M92.69 43.19c-2.528-3.228-5.478-5.806-8.835-7.756L82 41l-5.512 8.52c2.05 2.336 3.477 5.553 4.273 9.66H69.6l-13.894 11.7h44.753c.738-11.005-1.853-20.235-7.77-27.69M76.6 85.05c-3.05 1.907-6.473 2.86-10.264 2.86-9.977 0-15.712-4.524-17.235-13.547L36 76l-6.237-1.44c1.307 6.86 4.36 12.68 9.178 17.445 6.61 6.545 15.513 9.815 26.703 9.815 17.106 0 28.297-7.54 33.567-22.62H81.872c-.648 2.255-2.406 4.203-5.27 5.85"/></svg>