<svg xmlns="http://www.w3.org/2000/svg" xmlns:xlink="http://www.w3.org/1999/xlink" viewBox="0 0 130 130"><defs><path id="a" d="M0 0h130v130H0z"/></defs><clipPath id="b"><use xlink:href="#a" overflow="visible"/></clipPath><path clip-path="url(#b)" fill="#E8E8E8" d="M130 65c0 35.9-29.1 65-65 65S0 100.9 0 65 29.1 0 65 0s65 29.1 65 65"/><path clip-path="url(#b)" fill="#00CCF4" d="M65 120c-30.327 0-55-24.673-55-55s24.673-55 55-55 55 24.673 55 55-24.673 55-55 55"/><path clip-path="url(#b)" fill="#fff" d="M65 90c-13.785 0-25-11.215-25-25s11.215-25 25-25 25 11.215 25 25-11.215 25-25 25"/><path clip-path="url(#b)" fill="#00CCF4" d="M65 84c-10.477 0-19-8.523-19-19s8.523-19 19-19 19 8.523 19 19-8.523 19-19 19"/><path clip-path="url(#b)" fill="#fff" d="M60 45l5-20 5 20zM85 60l20 5-20 5zM45 70l-20-5 20-5zM70 85l-5 20-5-20z"/><path clip-path="url(#b)" fill="#FF3E5B" d="M61.598 61.52l38.78-31.93-31.93 38.78z"/><path clip-path="url(#b)" fill="#fff" d="M68.56 68.48l-38.782 31.93 31.93-38.78z"/></svg>